<?xml version="1.0" encoding="utf-8"?>
<!-- Generator: Adobe Illustrator 17.0.2, SVG Export Plug-In . SVG Version: 6.00 Build 0)  -->
<!DOCTYPE svg PUBLIC "-//W3C//DTD SVG 1.1//EN" "http://www.w3.org/Graphics/SVG/1.1/DTD/svg11.dtd">
<svg version="1.1" id="Layer_1" xmlns="http://www.w3.org/2000/svg" xmlns:xlink="http://www.w3.org/1999/xlink" x="0px" y="0px"
	 width="290px" height="128px" viewBox="0 0 290 128" enable-background="new 0 0 290 128" xml:space="preserve">
<g>
	<path fill="#F26822" d="M289.931,52.647c0,6.23-5.052,11.282-11.282,11.282H88.744c-6.23,0-11.282-5.051-11.282-11.282V11.282
		C77.462,5.051,82.514,0,88.744,0H278.65c6.23,0,11.282,5.051,11.282,11.282V52.647z"/>
	<g>
		<path fill="#FFFFFF" d="M122.011,42.63c-0.895,0.377-1.799,0.566-2.711,0.566c-1.439,0-2.733-0.25-3.883-0.75
			s-2.119-1.188-2.909-2.066c-0.79-0.877-1.395-1.908-1.816-3.093c-0.421-1.185-0.631-2.461-0.631-3.83
			c0-1.404,0.21-2.707,0.631-3.909c0.421-1.202,1.027-2.251,1.816-3.146c0.79-0.895,1.759-1.597,2.909-2.106
			c1.149-0.509,2.444-0.764,3.883-0.764c0.965,0,1.899,0.145,2.804,0.435c0.903,0.29,1.72,0.715,2.448,1.276
			c0.728,0.562,1.33,1.255,1.803,2.08c0.474,0.825,0.764,1.773,0.869,2.843h-3.948c-0.246-1.053-0.72-1.843-1.421-2.369
			c-0.702-0.526-1.553-0.79-2.554-0.79c-0.93,0-1.72,0.18-2.369,0.54s-1.176,0.842-1.579,1.448
			c-0.404,0.605-0.698,1.294-0.882,2.066c-0.185,0.772-0.276,1.571-0.276,2.396c0,0.79,0.092,1.558,0.276,2.303
			c0.184,0.746,0.478,1.417,0.882,2.014c0.403,0.597,0.93,1.075,1.579,1.435c0.649,0.36,1.439,0.54,2.369,0.54
			c1.369,0,2.426-0.346,3.172-1.04c0.746-0.693,1.18-1.698,1.303-3.014h-4.159v-3.08h7.897v10.161h-2.632l-0.421-2.132
			C123.722,41.591,122.906,42.253,122.011,42.63z"/>
		<path fill="#FFFFFF" d="M134.462,39.511c0.561,0.544,1.369,0.816,2.421,0.816c0.754,0,1.404-0.188,1.948-0.566
			c0.543-0.377,0.877-0.776,1-1.198h3.291c-0.526,1.632-1.334,2.799-2.422,3.501c-1.088,0.702-2.404,1.053-3.948,1.053
			c-1.071,0-2.036-0.171-2.896-0.513c-0.86-0.342-1.589-0.83-2.185-1.461c-0.597-0.632-1.058-1.386-1.382-2.264
			c-0.325-0.877-0.487-1.843-0.487-2.896c0-1.018,0.167-1.965,0.5-2.843c0.333-0.877,0.807-1.636,1.421-2.277
			c0.614-0.64,1.347-1.145,2.198-1.513c0.851-0.369,1.794-0.553,2.83-0.553c1.158,0,2.167,0.224,3.027,0.671
			c0.859,0.448,1.566,1.049,2.119,1.803c0.553,0.755,0.952,1.615,1.198,2.58c0.246,0.965,0.333,1.975,0.263,3.027h-9.818
			C133.594,38.09,133.9,38.967,134.462,39.511z M138.687,32.351c-0.447-0.491-1.127-0.737-2.04-0.737
			c-0.597,0-1.092,0.101-1.487,0.303c-0.395,0.202-0.71,0.452-0.948,0.75c-0.237,0.299-0.404,0.615-0.5,0.948
			c-0.097,0.333-0.154,0.632-0.171,0.895h6.081C139.446,33.562,139.135,32.843,138.687,32.351z"/>
		<path fill="#FFFFFF" d="M153.047,29.166v2.501h-2.738v6.739c0,0.632,0.105,1.053,0.316,1.264c0.211,0.21,0.631,0.315,1.264,0.315
			c0.211,0,0.412-0.008,0.605-0.026c0.191-0.018,0.377-0.044,0.553-0.079v2.896c-0.316,0.053-0.668,0.087-1.053,0.105
			c-0.387,0.017-0.764,0.026-1.133,0.026c-0.578,0-1.127-0.04-1.645-0.119s-0.975-0.232-1.369-0.46s-0.707-0.553-0.936-0.974
			c-0.227-0.421-0.342-0.974-0.342-1.659v-8.028h-2.264v-2.501h2.264v-4.08h3.738v4.08H153.047z"/>
		<path fill="#FFFFFF" d="M165.708,38.143c0.228,0.439,0.53,0.794,0.908,1.066c0.377,0.272,0.819,0.474,1.329,0.605
			c0.509,0.132,1.035,0.197,1.579,0.197c0.368,0,0.764-0.03,1.185-0.092s0.816-0.18,1.185-0.355
			c0.368-0.175,0.676-0.417,0.922-0.724c0.245-0.307,0.368-0.697,0.368-1.171c0-0.509-0.162-0.921-0.487-1.237
			c-0.325-0.316-0.75-0.58-1.276-0.79s-1.123-0.395-1.79-0.553c-0.667-0.158-1.343-0.333-2.027-0.526
			c-0.702-0.175-1.386-0.391-2.053-0.645s-1.264-0.583-1.79-0.987c-0.526-0.403-0.952-0.908-1.276-1.513
			c-0.325-0.605-0.487-1.338-0.487-2.198c0-0.965,0.206-1.803,0.618-2.514c0.412-0.71,0.952-1.303,1.619-1.776
			c0.667-0.474,1.422-0.825,2.264-1.053c0.843-0.228,1.685-0.342,2.527-0.342c0.982,0,1.926,0.11,2.83,0.329
			c0.903,0.22,1.706,0.575,2.408,1.066s1.259,1.119,1.672,1.882c0.412,0.764,0.618,1.689,0.618,2.777h-4.001
			c-0.035-0.562-0.154-1.027-0.355-1.396c-0.202-0.368-0.47-0.658-0.803-0.869c-0.334-0.21-0.716-0.359-1.146-0.447
			s-0.899-0.132-1.408-0.132c-0.333,0-0.667,0.036-1,0.105c-0.334,0.07-0.637,0.193-0.908,0.369
			c-0.272,0.175-0.496,0.395-0.671,0.658c-0.176,0.263-0.264,0.597-0.264,1c0,0.369,0.07,0.667,0.211,0.895
			c0.14,0.229,0.416,0.439,0.829,0.632c0.412,0.193,0.982,0.386,1.711,0.579c0.728,0.193,1.68,0.439,2.856,0.737
			c0.351,0.071,0.838,0.198,1.461,0.382c0.622,0.185,1.241,0.479,1.855,0.882c0.614,0.404,1.146,0.944,1.593,1.619
			c0.447,0.676,0.671,1.54,0.671,2.593c0,0.86-0.167,1.658-0.5,2.396c-0.334,0.737-0.829,1.373-1.487,1.908
			c-0.658,0.536-1.475,0.952-2.448,1.25s-2.102,0.448-3.383,0.448c-1.035,0-2.04-0.128-3.014-0.382
			c-0.974-0.254-1.834-0.654-2.58-1.198s-1.338-1.237-1.776-2.08c-0.439-0.842-0.649-1.843-0.632-3.001h4.001
			C165.365,37.168,165.479,37.704,165.708,38.143z"/>
		<path fill="#FFFFFF" d="M186.714,29.166v2.501h-2.737v6.739c0,0.632,0.104,1.053,0.315,1.264c0.211,0.21,0.632,0.315,1.264,0.315
			c0.211,0,0.412-0.008,0.605-0.026c0.192-0.018,0.377-0.044,0.553-0.079v2.896c-0.316,0.053-0.667,0.087-1.053,0.105
			c-0.387,0.017-0.764,0.026-1.132,0.026c-0.579,0-1.128-0.04-1.646-0.119s-0.974-0.232-1.369-0.46
			c-0.395-0.228-0.706-0.553-0.935-0.974c-0.228-0.421-0.342-0.974-0.342-1.659v-8.028h-2.264v-2.501h2.264v-4.08h3.738v4.08
			H186.714z"/>
		<path fill="#FFFFFF" d="M189.004,31.167c0.386-0.579,0.877-1.044,1.474-1.395c0.597-0.351,1.268-0.601,2.014-0.75
			s1.496-0.224,2.251-0.224c0.685,0,1.378,0.049,2.079,0.145c0.702,0.097,1.343,0.286,1.922,0.566
			c0.579,0.281,1.053,0.671,1.422,1.171c0.368,0.5,0.553,1.163,0.553,1.987v7.081c0,0.615,0.035,1.202,0.105,1.764
			c0.069,0.562,0.192,0.983,0.368,1.264h-3.79c-0.071-0.21-0.128-0.425-0.172-0.645c-0.044-0.219-0.074-0.443-0.092-0.671
			c-0.597,0.615-1.299,1.044-2.105,1.29c-0.808,0.246-1.633,0.369-2.475,0.369c-0.649,0-1.255-0.079-1.816-0.237
			c-0.562-0.158-1.053-0.404-1.475-0.737c-0.421-0.333-0.75-0.754-0.987-1.264c-0.236-0.509-0.354-1.114-0.354-1.816
			c0-0.772,0.136-1.409,0.407-1.909c0.272-0.5,0.623-0.899,1.054-1.198c0.43-0.298,0.921-0.522,1.474-0.671
			c0.553-0.149,1.109-0.267,1.672-0.355c0.562-0.088,1.114-0.158,1.658-0.211s1.026-0.131,1.447-0.237
			c0.422-0.105,0.755-0.259,1.001-0.46c0.245-0.202,0.359-0.496,0.342-0.882c0-0.404-0.065-0.724-0.197-0.961
			s-0.308-0.421-0.526-0.553c-0.22-0.132-0.474-0.219-0.764-0.263c-0.289-0.044-0.602-0.066-0.935-0.066
			c-0.736,0-1.315,0.158-1.737,0.474c-0.421,0.316-0.667,0.842-0.736,1.58h-3.738C188.398,32.474,188.617,31.746,189.004,31.167z
			 M196.388,36.444c-0.237,0.079-0.492,0.145-0.764,0.198c-0.272,0.053-0.558,0.097-0.855,0.131
			c-0.299,0.036-0.597,0.079-0.896,0.132c-0.28,0.053-0.557,0.123-0.829,0.21c-0.271,0.088-0.509,0.207-0.71,0.355
			c-0.202,0.149-0.365,0.338-0.487,0.566c-0.123,0.229-0.185,0.518-0.185,0.869c0,0.333,0.062,0.615,0.185,0.842
			c0.122,0.229,0.289,0.408,0.5,0.54c0.211,0.132,0.456,0.224,0.737,0.276c0.28,0.053,0.57,0.079,0.868,0.079
			c0.737,0,1.308-0.123,1.711-0.369c0.404-0.245,0.702-0.54,0.896-0.882c0.192-0.342,0.312-0.688,0.355-1.04
			c0.043-0.351,0.065-0.632,0.065-0.842v-1.395C196.821,36.256,196.624,36.366,196.388,36.444z"/>
		<path fill="#FFFFFF" d="M207.167,29.166v2.527h0.052c0.176-0.421,0.412-0.812,0.711-1.171s0.641-0.667,1.027-0.921
			c0.386-0.254,0.798-0.452,1.236-0.592s0.896-0.211,1.369-0.211c0.246,0,0.518,0.044,0.816,0.132v3.475
			c-0.176-0.035-0.387-0.066-0.632-0.092c-0.246-0.026-0.483-0.039-0.711-0.039c-0.685,0-1.264,0.114-1.737,0.342
			c-0.474,0.229-0.855,0.54-1.146,0.935c-0.289,0.395-0.496,0.855-0.618,1.382c-0.123,0.526-0.185,1.097-0.185,1.711v6.133h-3.737
			V29.166H207.167z"/>
		<path fill="#FFFFFF" d="M221.328,29.166v2.501h-2.737v6.739c0,0.632,0.104,1.053,0.315,1.264c0.211,0.21,0.632,0.315,1.264,0.315
			c0.211,0,0.412-0.008,0.605-0.026c0.192-0.018,0.377-0.044,0.553-0.079v2.896c-0.316,0.053-0.667,0.087-1.053,0.105
			c-0.387,0.017-0.764,0.026-1.132,0.026c-0.579,0-1.128-0.04-1.646-0.119s-0.974-0.232-1.369-0.46
			c-0.395-0.228-0.706-0.553-0.935-0.974c-0.228-0.421-0.342-0.974-0.342-1.659v-8.028h-2.264v-2.501h2.264v-4.08h3.738v4.08
			H221.328z"/>
		<path fill="#FFFFFF" d="M227.119,39.511c0.562,0.544,1.368,0.816,2.422,0.816c0.754,0,1.403-0.188,1.947-0.566
			c0.544-0.377,0.878-0.776,1.001-1.198h3.29c-0.526,1.632-1.334,2.799-2.422,3.501c-1.088,0.702-2.404,1.053-3.948,1.053
			c-1.07,0-2.036-0.171-2.896-0.513c-0.86-0.342-1.589-0.83-2.185-1.461c-0.598-0.632-1.058-1.386-1.383-2.264
			c-0.324-0.877-0.486-1.843-0.486-2.896c0-1.018,0.166-1.965,0.5-2.843c0.333-0.877,0.807-1.636,1.421-2.277
			c0.614-0.64,1.347-1.145,2.198-1.513c0.852-0.369,1.794-0.553,2.83-0.553c1.158,0,2.167,0.224,3.027,0.671
			c0.859,0.448,1.566,1.049,2.119,1.803c0.553,0.755,0.951,1.615,1.197,2.58c0.246,0.965,0.333,1.975,0.264,3.027h-9.819
			C226.25,38.09,226.557,38.967,227.119,39.511z M231.344,32.351c-0.447-0.491-1.128-0.737-2.04-0.737
			c-0.597,0-1.093,0.101-1.487,0.303s-0.711,0.452-0.947,0.75c-0.237,0.299-0.404,0.615-0.5,0.948
			c-0.097,0.333-0.154,0.632-0.172,0.895h6.081C232.103,33.562,231.791,32.843,231.344,32.351z"/>
		<path fill="#FFFFFF" d="M247.888,41.038c-0.438,0.737-1.014,1.268-1.724,1.592c-0.711,0.325-1.514,0.487-2.409,0.487
			c-1.018,0-1.913-0.197-2.685-0.592c-0.772-0.395-1.408-0.93-1.908-1.606c-0.501-0.675-0.878-1.452-1.133-2.33
			c-0.254-0.877-0.381-1.79-0.381-2.738c0-0.912,0.127-1.794,0.381-2.646c0.255-0.851,0.632-1.601,1.133-2.25
			c0.5-0.649,1.127-1.171,1.882-1.566c0.754-0.395,1.632-0.592,2.632-0.592c0.808,0,1.575,0.171,2.304,0.514
			c0.728,0.342,1.303,0.847,1.725,1.514h0.052V23.98h3.738v18.795h-3.554v-1.737H247.888z M247.729,34.312
			c-0.104-0.518-0.285-0.974-0.539-1.369c-0.255-0.395-0.584-0.715-0.987-0.96c-0.404-0.246-0.913-0.369-1.526-0.369
			c-0.615,0-1.132,0.123-1.554,0.369c-0.421,0.246-0.759,0.57-1.013,0.974c-0.255,0.404-0.439,0.865-0.554,1.382
			s-0.171,1.057-0.171,1.619c0,0.526,0.062,1.053,0.185,1.58c0.122,0.526,0.32,0.996,0.592,1.408c0.272,0.413,0.614,0.746,1.027,1
			c0.412,0.254,0.908,0.381,1.487,0.381c0.613,0,1.127-0.123,1.54-0.368c0.412-0.246,0.741-0.575,0.986-0.987
			c0.246-0.412,0.422-0.882,0.526-1.408c0.105-0.527,0.158-1.07,0.158-1.632C247.888,35.37,247.835,34.83,247.729,34.312z"/>
		<path fill="#FFFFFF" d="M258.628,38.722v4.054h-4.133v-4.054H258.628z M257.47,37.142h-1.869l-1-8.107V23.98h3.896v5.054
			L257.47,37.142z"/>
	</g>
	<g>
		<path d="M25.446,68.242c0,0.023,0,0.045,0,0.068c0.023,0,0.045,0,0.068,0L25.446,68.242z"/>
		<path d="M31,62c-1,0-4,0-5,0c0,1,0,3,0,6c1,0,4,0,5,0C31,65,31,63,31,62z"/>
		<path d="M25.515,68.242c-0.023,0-0.046,0-0.068,0l0.068,0.068C25.515,68.287,25.515,68.265,25.515,68.242z"/>
		<path d="M108,49c0-2,0-3,0-6c-3,0-4,0-6,0c0,8,0,16,0,25c-3,0-5,0-8,0c0-5,0-5,0-5h-5c0,0,0,4,0,11c1,0,4,0,5,0c0,4,0,5,0,7
			c-1,0-4,0-5,0c0,3,0,4,0,5h-1.979l0,0C80.759,86,77,86,72,86c0-3,0-8,0-15c-4,0-6,0-8,0c0,3,0,7,0,8c-6,0-11,0-16,0c0-1,0-5,0-8
			c-2,0-5,0-6,0c0,7,0,10.027,0,14.478C42,85.56,40.629,86,39.955,86C30.912,86,22,86,20,86c0-1,0-2,0-5c-3,0-4,0-7,0c0-2,0-3,0-7
			c4,0,9,0,13,0c0-3,0-4,0-6c-4,0-8,0-13,0c0-3,0-5,0-6c3,0,4,0,7,0c0-3,0-5,0-8c2,0,3,0,6,0c0-2,0-2,0-5c-6,0-14,0-19,0
			c0,2,0,3,0,5c-2,0-4.985,0-7,0c0,8,0,16,0,25c1.007,0,4,0,5,0c0,4,0,6,0,9c4,0,6,0,7,0c0,2,0,5,0,6c3,0,11,0,21,0c0,4,0,6,0,9
			c-6,0-11,0-17,0c0,1,0,3,0,6c-3,0-4,0-6,0c0,6,0,12,0,18c2,0,3,0,6,0c0-2,0-5,0-7c2,0,4,0,6,0c0-1,0-4,0-5c3,0,4,0,6,0
			c0,4,0,7,0,11c3,0,5,0,8,0c0-2,0-4,0-6c2,0,4,0,6,0c0-1,0-4,0-5c4,0,8,0,11,0c0,2,0,4,0,6c3,0,5,0,6,0c0,1,0,4,0,5c3,0,5,0,7,0
			c0-4,0-7,0-11c2,0,6,0,8,0c0,1,0,4,0,6c3,0,4,0,6,0c0,1,0,4,0,6c2,0,4,0,5,0c0-6,0-12,0-18c-1,0-3,0-6,0c0-5,0-9,0-14
			c8,0,14,0,16,0c0-2,0-5,0-9c2,0,4,0,7,0c0-1,0-2,0-5c1,0,3,0,6,0c0-2,0-3,0-6c2,0,3,0,5,0c0-10,0-17,0-26C111,49,110,49,108,49z"
			/>
	</g>
</g>
</svg>
