<?xml version="1.0" encoding="utf-8"?>
<!-- Generator: Adobe Illustrator 17.0.2, SVG Export Plug-In . SVG Version: 6.00 Build 0)  -->
<!DOCTYPE svg PUBLIC "-//W3C//DTD SVG 1.1//EN" "http://www.w3.org/Graphics/SVG/1.1/DTD/svg11.dtd">
<svg version="1.1" id="Layer_1" xmlns="http://www.w3.org/2000/svg" xmlns:xlink="http://www.w3.org/1999/xlink" x="0px" y="0px"
	 width="614px" height="321px" viewBox="0 0 614 321" enable-background="new 0 0 614 321" xml:space="preserve">
<g>
	<g>
		<path d="M429.33,47.974c0,0.044,0,0.088,0,0.132c0.044,0,0.088,0,0.133,0L429.33,47.974z"/>
		<path d="M442,36c-4,0-8,0-12,0c0,4,0,9,0,14c3,0,8,0,12,0C442,45,442,40,442,36z"/>
		<path d="M429.462,47.974c-0.044,0-0.089,0-0.133,0l0.133,0.132C429.462,48.063,429.462,48.018,429.462,47.974z"/>
		<path d="M589,12c0-5,0-7.011,0-12c-5,0-8,0-13,0c0,14.968,0,32,0,50c-3,0-8,0-13,0c0-10,0-18,0-26c-3,0-8,0-12,0c0,12,0,23,0,36
			c4,0,9,0,12,0c0,5,0,9,0,14c-3,0-8,0-12,0c0,3,0,7,0,10h-1v-2c-11,0-21,0-32,0c0-7,0-17,0-28c-4,0-9,0-13,0c0,6,0,11,0,15
			c-11,0-20,0-30,0c0-4,0-9,0-15c-6,0-11,0-13,0c0,11,0,18.824,0,27.474c0,0.16-3.162,0.526-4.47,2.526C439.953,84,424,84,418,84
			c0-3,0-7,0-10c-5,0-8,0-13,0c0-5,0-9,0-14c8,0,18,0,25,0c0-5,0-9,0-10c-7,0-15,0-25,0c0-6,0-10,0-14c5,0,8,0,13,0c0-5,0-9,0-14
			c5,0,9,0,12,0c0-5,0-6,0-10c-12,0-26,0-36,0c0,3,0,5,0,10c-5,0-9,0-14,0c0,15,0,30,0,45c3,0,8,0,10,0c0,8,0,14,0,18c7,0,10,0,14,0
			c0,5,0,10,0,14c5,0,23,0,41,0c0,6,0,11,0,15c-12,0-22,0-35,0c0,3,0,7,0,12c-5,0-7,0-12,0c0,14,0,24,0,37c5,0,7,0,12,0
			c0-5,0-8,0-13c5,0,9,0,14,0c0-3,0-8,0-10c4,0,8,0,11,0c0,7,0,15,0,22c5,0,10,0,14,0c0-5,0-7,0-12c5,0,8,0,13,0c0-3,0-8,0-10
			c7,0,14,0,23,0c0,3,0,7,0,11c5,0,9,0,13,0c0,4,0,7,0,11c2,0,7,0,11,0c0-9,0-15,0-24c5,0,9,0,14,0c0,4,0,9,0,13c5,0,7,0,12,0
			c0,4,0,7,0,12c3,0,8,0,11,0c0-13,0-25,0-37c-3,0-8,0-13,0c0-9,0-16,0-26c15,0,27,0,32,0c0-5,0-10,0-16c3,0,8,0,11,0c0-3,0-7,0-10
			c4,0,8,0,13,0c0-5,0-8,0-13c5,0,7,0,10,0c0-16,0-32,0-49C596,12,594,12,589,12z"/>
	</g>
	<g>
		<path fill="#FFFFFF" d="M0,268.674v-92.239h28.825v11.53h11.53v11.53h11.53v-11.53h11.53v-11.53h28.825v92.239H63.414v-40.355
			h-5.765v11.53H34.589v-11.53h-5.765v40.355H0z"/>
		<path fill="#FFFFFF" d="M100.885,268.674v-92.239h28.825v92.239H100.885z"/>
		<path fill="#FFFFFF" d="M138.358,268.674v-92.239h28.825v14.413h11.53v14.412h8.647v-28.825h28.824v92.239h-28.824v-14.412h-11.53
			v-14.413h-8.647v28.825H138.358z"/>
		<path fill="#FFFFFF" d="M224.831,268.674v-92.239h69.178v23.06h-40.353v11.53h40.353v23.059h-40.353v11.53h40.353v23.059H224.831z
			"/>
		<path fill="#FFFFFF" d="M302.657,268.674v-92.239h74.944v23.06h-46.12v46.12h46.12v23.059H302.657z"/>
		<path fill="#FFFFFF" d="M386.248,268.674v-92.239h69.178v51.884h-8.647v5.765h8.647v34.59h-28.824v-34.59h-11.53v34.59H386.248z
			 M426.602,211.024v-11.53h-11.53v11.53H426.602z"/>
		<path fill="#FFFFFF" d="M464.074,268.674v-92.239h69.178v92.239h-28.824v-25.942h-11.53v25.942H464.074z M504.428,208.141h-11.53
			v11.53h11.53V208.141z"/>
		<path fill="#FFFFFF" d="M541.901,268.674v-92.239h69.178v43.237h-8.647v5.765h8.647v43.237H541.901z M582.255,211.024v-11.53
			h-11.53v11.53H582.255z M582.255,245.614v-11.53h-11.53v11.53H582.255z"/>
	</g>
	<g>
		<path fill="#FFFFFF" d="M13.035,286.425c1.67,0,3.093,0.242,4.266,0.73c1.172,0.486,2.126,1.129,2.863,1.927
			c0.736,0.798,1.272,1.709,1.609,2.731c0.336,1.023,0.504,2.084,0.504,3.182c0,1.072-0.168,2.127-0.504,3.161
			c-0.337,1.035-0.873,1.953-1.609,2.751c-0.737,0.799-1.691,1.441-2.863,1.927c-1.173,0.487-2.596,0.73-4.266,0.73H6.86v9.581
			H0.985v-26.719H13.035z M11.426,298.998c0.674,0,1.322-0.05,1.945-0.15c0.624-0.1,1.172-0.294,1.647-0.58
			c0.473-0.287,0.854-0.693,1.141-1.217c0.286-0.524,0.43-1.21,0.43-2.057c0-0.848-0.144-1.535-0.43-2.059
			c-0.287-0.524-0.669-0.929-1.141-1.216c-0.475-0.288-1.023-0.481-1.647-0.581c-0.624-0.099-1.272-0.149-1.945-0.149H6.86v8.008
			H11.426z"/>
		<path fill="#FFFFFF" d="M31.071,308.502c0.799,0.775,1.947,1.161,3.444,1.161c1.072,0,1.995-0.268,2.769-0.805
			c0.772-0.536,1.247-1.104,1.422-1.702h4.678c-0.748,2.319-1.895,3.978-3.442,4.976c-1.547,0.999-3.418,1.497-5.613,1.497
			c-1.521,0-2.894-0.244-4.116-0.73c-1.223-0.486-2.258-1.179-3.106-2.077c-0.848-0.898-1.503-1.97-1.965-3.218
			c-0.462-1.247-0.692-2.619-0.692-4.116c0-1.447,0.236-2.793,0.711-4.042c0.473-1.247,1.146-2.325,2.02-3.237
			c0.873-0.91,1.915-1.627,3.126-2.151c1.21-0.525,2.55-0.787,4.022-0.787c1.647,0,3.081,0.319,4.304,0.955
			c1.222,0.636,2.227,1.491,3.012,2.563c0.786,1.073,1.352,2.296,1.702,3.668c0.35,1.372,0.474,2.807,0.375,4.302H29.762
			C29.837,306.483,30.273,307.73,31.071,308.502z M37.078,298.325c-0.636-0.698-1.603-1.049-2.9-1.049
			c-0.848,0-1.553,0.145-2.115,0.431c-0.56,0.286-1.01,0.642-1.347,1.066c-0.336,0.425-0.574,0.873-0.71,1.347
			c-0.138,0.474-0.219,0.898-0.244,1.273h8.644C38.156,300.046,37.714,299.023,37.078,298.325z"/>
		<path fill="#FFFFFF" d="M51.915,293.797v3.592h0.076c0.249-0.599,0.585-1.154,1.01-1.665c0.424-0.512,0.91-0.948,1.459-1.311
			c0.548-0.361,1.135-0.642,1.759-0.842c0.624-0.199,1.272-0.3,1.945-0.3c0.35,0,0.736,0.063,1.161,0.188v4.94
			c-0.25-0.05-0.549-0.094-0.899-0.13c-0.35-0.038-0.686-0.057-1.01-0.057c-0.973,0-1.797,0.163-2.47,0.487
			c-0.674,0.324-1.216,0.767-1.627,1.328c-0.412,0.562-0.705,1.217-0.879,1.965c-0.174,0.749-0.262,1.559-0.262,2.433v8.719h-5.314
			v-19.346H51.915z"/>
		<path fill="#FFFFFF" d="M65.892,308.334c0.236,0.412,0.542,0.749,0.917,1.011c0.374,0.262,0.804,0.456,1.29,0.58
			c0.487,0.125,0.992,0.186,1.517,0.186c0.374,0,0.766-0.043,1.178-0.13c0.412-0.088,0.786-0.224,1.123-0.412
			c0.336-0.188,0.618-0.436,0.842-0.748c0.224-0.312,0.337-0.705,0.337-1.179c0-0.798-0.531-1.397-1.591-1.797
			c-1.061-0.398-2.539-0.798-4.434-1.197c-0.774-0.174-1.529-0.38-2.265-0.618c-0.736-0.236-1.391-0.548-1.965-0.936
			c-0.574-0.386-1.035-0.872-1.384-1.459c-0.35-0.586-0.524-1.303-0.524-2.151c0-1.247,0.242-2.269,0.73-3.068
			c0.486-0.798,1.128-1.428,1.927-1.889c0.798-0.462,1.696-0.787,2.693-0.973c0.998-0.188,2.021-0.281,3.07-0.281
			c1.048,0,2.064,0.101,3.049,0.3c0.985,0.2,1.865,0.537,2.638,1.011c0.774,0.474,1.415,1.104,1.927,1.889
			c0.512,0.786,0.817,1.777,0.917,2.975h-5.053c-0.074-1.022-0.462-1.715-1.16-2.077c-0.698-0.361-1.521-0.542-2.469-0.542
			c-0.3,0-0.625,0.018-0.973,0.056c-0.35,0.038-0.668,0.118-0.954,0.244c-0.287,0.124-0.531,0.306-0.73,0.542
			c-0.201,0.238-0.3,0.555-0.3,0.954c0,0.475,0.174,0.861,0.524,1.161c0.348,0.298,0.804,0.542,1.366,0.73
			c0.562,0.186,1.204,0.356,1.927,0.504c0.724,0.15,1.459,0.313,2.208,0.487c0.772,0.174,1.528,0.387,2.263,0.636
			c0.736,0.25,1.391,0.58,1.965,0.992c0.574,0.412,1.035,0.923,1.385,1.535c0.348,0.612,0.524,1.366,0.524,2.263
			c0,1.273-0.256,2.339-0.767,3.2c-0.512,0.86-1.179,1.553-2.003,2.077c-0.822,0.524-1.765,0.892-2.825,1.104
			c-1.061,0.212-2.139,0.318-3.237,0.318c-1.123,0-2.221-0.112-3.294-0.336c-1.072-0.225-2.027-0.599-2.863-1.123
			s-1.521-1.216-2.057-2.077c-0.537-0.86-0.83-1.939-0.879-3.237h5.052C65.536,307.43,65.654,307.922,65.892,308.334z"/>
		<path fill="#FFFFFF" d="M81.626,299.279c0.474-1.26,1.147-2.333,2.021-3.218s1.921-1.571,3.143-2.059
			c1.223-0.486,2.595-0.73,4.117-0.73c1.521,0,2.899,0.244,4.134,0.73c1.235,0.487,2.289,1.173,3.162,2.059s1.547,1.959,2.021,3.218
			s0.711,2.663,0.711,4.21s-0.238,2.944-0.711,4.192s-1.147,2.313-2.021,3.199s-1.927,1.567-3.162,2.039
			c-1.235,0.474-2.613,0.711-4.134,0.711c-1.523,0-2.894-0.238-4.117-0.711c-1.222-0.473-2.269-1.154-3.143-2.039
			s-1.547-1.951-2.021-3.199c-0.474-1.247-0.711-2.645-0.711-4.192S81.152,300.538,81.626,299.279z M86.454,305.753
			c0.15,0.736,0.406,1.397,0.767,1.983c0.361,0.586,0.842,1.054,1.44,1.403c0.599,0.35,1.347,0.524,2.246,0.524
			c0.898,0,1.652-0.174,2.263-0.524s1.098-0.817,1.459-1.403c0.362-0.586,0.618-1.247,0.767-1.983
			c0.15-0.736,0.224-1.491,0.224-2.265s-0.074-1.535-0.224-2.283c-0.15-0.748-0.406-1.409-0.767-1.983
			c-0.362-0.574-0.848-1.042-1.459-1.403s-1.366-0.543-2.263-0.543c-0.899,0-1.647,0.182-2.246,0.543
			c-0.598,0.362-1.079,0.83-1.44,1.403c-0.362,0.574-0.618,1.235-0.767,1.983c-0.15,0.748-0.224,1.509-0.224,2.283
			S86.304,305.017,86.454,305.753z"/>
		<path fill="#FFFFFF" d="M109.43,293.797v2.693h0.112c0.674-1.122,1.547-1.939,2.62-2.451c1.072-0.51,2.17-0.767,3.293-0.767
			c1.422,0,2.587,0.194,3.498,0.581c0.911,0.386,1.629,0.923,2.152,1.609c0.524,0.686,0.892,1.521,1.104,2.507
			c0.212,0.985,0.318,2.077,0.318,3.274v11.9h-5.314v-10.927c0-1.597-0.25-2.788-0.749-3.574c-0.498-0.786-1.384-1.179-2.657-1.179
			c-1.447,0-2.495,0.43-3.143,1.291c-0.649,0.86-0.973,2.277-0.973,4.248v10.141h-5.314v-19.346H109.43z"/>
		<path fill="#FFFFFF" d="M127.28,296.64c0.548-0.823,1.246-1.484,2.095-1.983c0.848-0.498,1.802-0.854,2.863-1.066
			c1.06-0.212,2.127-0.319,3.2-0.319c0.972,0,1.958,0.069,2.955,0.206c0.998,0.138,1.909,0.407,2.732,0.805
			c0.823,0.4,1.497,0.954,2.021,1.665s0.786,1.653,0.786,2.825v10.067c0,0.873,0.05,1.709,0.15,2.507
			c0.099,0.799,0.274,1.397,0.524,1.797h-5.389c-0.1-0.3-0.182-0.605-0.242-0.917c-0.063-0.312-0.107-0.63-0.132-0.954
			c-0.848,0.873-1.847,1.484-2.994,1.833c-1.147,0.35-2.319,0.524-3.517,0.524c-0.923,0-1.785-0.112-2.582-0.336
			c-0.799-0.225-1.497-0.574-2.095-1.049c-0.599-0.473-1.067-1.072-1.403-1.796c-0.337-0.724-0.506-1.584-0.506-2.582
			c0-1.098,0.192-2.001,0.58-2.713c0.386-0.711,0.886-1.278,1.497-1.703c0.612-0.424,1.31-0.742,2.095-0.954
			c0.786-0.212,1.577-0.38,2.377-0.506c0.798-0.124,1.584-0.224,2.357-0.3c0.774-0.074,1.459-0.186,2.059-0.336
			c0.599-0.15,1.072-0.368,1.422-0.655c0.35-0.286,0.512-0.704,0.487-1.253c0-0.574-0.094-1.029-0.281-1.366
			c-0.186-0.337-0.436-0.599-0.748-0.786c-0.312-0.188-0.674-0.312-1.085-0.374s-0.855-0.094-1.329-0.094
			c-1.048,0-1.871,0.224-2.469,0.674c-0.599,0.448-0.949,1.197-1.048,2.245h-5.314C126.418,298.499,126.73,297.464,127.28,296.64z
			 M137.776,304.144c-0.337,0.112-0.699,0.206-1.085,0.28c-0.387,0.074-0.793,0.138-1.217,0.188
			c-0.424,0.05-0.848,0.112-1.272,0.186c-0.4,0.076-0.793,0.175-1.179,0.3c-0.387,0.125-0.724,0.294-1.01,0.506
			c-0.287,0.212-0.519,0.48-0.693,0.804c-0.174,0.325-0.262,0.736-0.262,1.235c0,0.474,0.088,0.873,0.262,1.197
			s0.412,0.58,0.711,0.767c0.3,0.186,0.648,0.318,1.048,0.392c0.4,0.076,0.81,0.112,1.235,0.112c1.048,0,1.858-0.174,2.433-0.524
			c0.574-0.348,0.998-0.766,1.272-1.253c0.274-0.486,0.443-0.978,0.506-1.478c0.062-0.499,0.094-0.898,0.094-1.197v-1.983
			C138.393,303.876,138.113,304.031,137.776,304.144z"/>
		<path fill="#FFFFFF" d="M153.511,286.425v26.719h-5.314v-26.719H153.511z"/>
		<path fill="#FFFFFF" d="M176.937,286.425l6.249,18.373h0.074l5.913-18.373h8.27v26.719h-5.5v-18.936h-0.076l-6.549,18.936h-4.528
			l-6.549-18.748h-0.074v18.748h-5.501v-26.719H176.937z"/>
		<path fill="#FFFFFF" d="M202.196,290.803v-4.378h5.314v4.378H202.196z M207.51,293.797v19.346h-5.314v-19.346H207.51z"/>
		<path fill="#FFFFFF" d="M216.753,293.797v2.693h0.112c0.674-1.122,1.547-1.939,2.62-2.451c1.072-0.51,2.17-0.767,3.293-0.767
			c1.422,0,2.587,0.194,3.499,0.581c0.911,0.386,1.629,0.923,2.152,1.609c0.524,0.686,0.892,1.521,1.104,2.507
			c0.212,0.985,0.318,2.077,0.318,3.274v11.9h-5.314v-10.927c0-1.597-0.25-2.788-0.749-3.574c-0.498-0.786-1.384-1.179-2.657-1.179
			c-1.447,0-2.495,0.43-3.143,1.291c-0.649,0.86-0.973,2.277-0.973,4.248v10.141h-5.314v-19.346H216.753z"/>
		<path fill="#FFFFFF" d="M239.579,308.502c0.799,0.775,1.947,1.161,3.444,1.161c1.072,0,1.995-0.268,2.769-0.805
			c0.772-0.536,1.247-1.104,1.422-1.702h4.678c-0.748,2.319-1.895,3.978-3.442,4.976c-1.547,0.999-3.418,1.497-5.613,1.497
			c-1.521,0-2.894-0.244-4.116-0.73c-1.223-0.486-2.258-1.179-3.106-2.077s-1.503-1.97-1.965-3.218
			c-0.462-1.247-0.692-2.619-0.692-4.116c0-1.447,0.236-2.793,0.711-4.042c0.473-1.247,1.146-2.325,2.02-3.237
			c0.873-0.91,1.915-1.627,3.126-2.151c1.21-0.525,2.55-0.787,4.022-0.787c1.647,0,3.081,0.319,4.304,0.955
			c1.222,0.636,2.227,1.491,3.012,2.563c0.786,1.073,1.352,2.296,1.702,3.668s0.474,2.807,0.375,4.302h-13.959
			C238.345,306.483,238.781,307.73,239.579,308.502z M245.585,298.325c-0.636-0.698-1.603-1.049-2.9-1.049
			c-0.848,0-1.553,0.145-2.115,0.431c-0.56,0.286-1.01,0.642-1.347,1.066c-0.336,0.425-0.574,0.873-0.71,1.347
			c-0.138,0.474-0.219,0.898-0.244,1.273h8.644C246.663,300.046,246.221,299.023,245.585,298.325z"/>
		<path fill="#FFFFFF" d="M264.614,297.276c-0.849,0-1.559,0.194-2.133,0.581c-0.575,0.386-1.043,0.886-1.403,1.496
			c-0.362,0.613-0.618,1.285-0.767,2.021c-0.15,0.737-0.224,1.467-0.224,2.189c0,0.699,0.074,1.411,0.224,2.133
			c0.15,0.725,0.392,1.379,0.73,1.965c0.336,0.587,0.792,1.067,1.366,1.441c0.574,0.374,1.273,0.562,2.096,0.562
			c1.272,0,2.251-0.356,2.937-1.067c0.686-0.71,1.116-1.665,1.291-2.863h5.127c-0.35,2.57-1.347,4.528-2.994,5.875
			c-1.647,1.347-3.756,2.021-6.325,2.021c-1.447,0-2.775-0.244-3.985-0.73c-1.211-0.486-2.24-1.166-3.088-2.039
			c-0.848-0.873-1.509-1.915-1.983-3.125c-0.474-1.21-0.711-2.539-0.711-3.986c0-1.497,0.218-2.887,0.655-4.172
			c0.436-1.285,1.079-2.395,1.927-3.33c0.848-0.936,1.883-1.665,3.106-2.189c1.222-0.525,2.619-0.787,4.19-0.787
			c1.147,0,2.251,0.15,3.312,0.449c1.06,0.3,2.008,0.755,2.844,1.366c0.836,0.612,1.515,1.373,2.039,2.283
			c0.524,0.911,0.823,1.99,0.898,3.238h-5.201C268.193,298.387,266.883,297.276,264.614,297.276z"/>
		<path fill="#FFFFFF" d="M281.902,293.797v3.592h0.076c0.249-0.599,0.585-1.154,1.01-1.665c0.424-0.512,0.91-0.948,1.459-1.311
			c0.548-0.361,1.135-0.642,1.759-0.842c0.624-0.199,1.272-0.3,1.945-0.3c0.35,0,0.736,0.063,1.161,0.188v4.94
			c-0.25-0.05-0.549-0.094-0.899-0.13c-0.35-0.038-0.686-0.057-1.01-0.057c-0.973,0-1.797,0.163-2.47,0.487
			c-0.674,0.324-1.216,0.767-1.627,1.328c-0.412,0.562-0.705,1.217-0.879,1.965c-0.174,0.749-0.262,1.559-0.262,2.433v8.719h-5.314
			v-19.346H281.902z"/>
		<path fill="#FFFFFF" d="M292.118,296.64c0.548-0.823,1.246-1.484,2.095-1.983c0.848-0.498,1.802-0.854,2.863-1.066
			c1.06-0.212,2.127-0.319,3.2-0.319c0.972,0,1.958,0.069,2.955,0.206c0.998,0.138,1.909,0.407,2.732,0.805
			c0.823,0.4,1.497,0.954,2.021,1.665c0.524,0.711,0.786,1.653,0.786,2.825v10.067c0,0.873,0.05,1.709,0.15,2.507
			c0.099,0.799,0.274,1.397,0.524,1.797h-5.389c-0.1-0.3-0.181-0.605-0.242-0.917c-0.063-0.312-0.107-0.63-0.132-0.954
			c-0.848,0.873-1.847,1.484-2.994,1.833s-2.319,0.524-3.517,0.524c-0.923,0-1.785-0.112-2.582-0.336
			c-0.799-0.225-1.497-0.574-2.095-1.049c-0.599-0.473-1.067-1.072-1.403-1.796c-0.337-0.724-0.506-1.584-0.506-2.582
			c0-1.098,0.192-2.001,0.58-2.713c0.386-0.711,0.886-1.278,1.497-1.703c0.612-0.424,1.31-0.742,2.095-0.954
			c0.786-0.212,1.577-0.38,2.377-0.506c0.798-0.124,1.584-0.224,2.357-0.3c0.774-0.074,1.459-0.186,2.059-0.336
			c0.599-0.15,1.072-0.368,1.422-0.655c0.35-0.286,0.512-0.704,0.487-1.253c0-0.574-0.094-1.029-0.281-1.366
			c-0.186-0.337-0.436-0.599-0.748-0.786c-0.312-0.188-0.674-0.312-1.085-0.374c-0.412-0.062-0.855-0.094-1.329-0.094
			c-1.048,0-1.871,0.224-2.469,0.674c-0.599,0.448-0.949,1.197-1.048,2.245h-5.314C291.257,298.499,291.569,297.464,292.118,296.64z
			 M302.615,304.144c-0.337,0.112-0.699,0.206-1.085,0.28c-0.387,0.074-0.793,0.138-1.217,0.188
			c-0.424,0.05-0.848,0.112-1.272,0.186c-0.4,0.076-0.793,0.175-1.179,0.3c-0.387,0.125-0.724,0.294-1.01,0.506
			c-0.287,0.212-0.519,0.48-0.693,0.804c-0.174,0.325-0.262,0.736-0.262,1.235c0,0.474,0.088,0.873,0.262,1.197
			s0.412,0.58,0.711,0.767c0.3,0.186,0.648,0.318,1.048,0.392c0.4,0.076,0.81,0.112,1.235,0.112c1.048,0,1.858-0.174,2.433-0.524
			c0.574-0.348,0.998-0.766,1.272-1.253c0.274-0.486,0.443-0.978,0.506-1.478c0.062-0.499,0.094-0.898,0.094-1.197v-1.983
			C303.231,303.876,302.951,304.031,302.615,304.144z"/>
		<path fill="#FFFFFF" d="M310.865,297.351v-3.555h3.181V292.3c0-1.721,0.536-3.131,1.609-4.229
			c1.072-1.098,2.695-1.646,4.865-1.646c0.474,0,0.948,0.018,1.422,0.056c0.474,0.037,0.936,0.068,1.385,0.094v3.966
			c-0.624-0.076-1.273-0.112-1.947-0.112c-0.724,0-1.241,0.168-1.553,0.504c-0.312,0.337-0.468,0.905-0.468,1.703v1.161h3.668v3.555
			h-3.668v15.792h-5.314v-15.792H310.865z"/>
		<path fill="#FFFFFF" d="M335.975,293.797v3.555h-3.892v9.579c0,0.899,0.15,1.497,0.449,1.797c0.3,0.3,0.898,0.448,1.797,0.448
			c0.298,0,0.586-0.012,0.86-0.037c0.274-0.024,0.536-0.062,0.786-0.112v4.116c-0.448,0.074-0.948,0.124-1.496,0.15
			c-0.549,0.024-1.085,0.037-1.609,0.037c-0.823,0-1.604-0.056-2.339-0.168c-0.737-0.112-1.385-0.33-1.947-0.654
			c-0.562-0.324-1.004-0.787-1.328-1.385c-0.325-0.599-0.487-1.385-0.487-2.357v-11.414h-3.218v-3.555h3.218v-5.801h5.314v5.801
			H335.975z"/>
		<path fill="#FFFFFF" d="M353.974,306.557c0.324,0.624,0.754,1.129,1.291,1.515c0.536,0.387,1.166,0.674,1.889,0.861
			c0.724,0.186,1.472,0.28,2.245,0.28c0.525,0,1.085-0.043,1.685-0.13c0.598-0.088,1.16-0.256,1.683-0.506s0.96-0.592,1.31-1.029
			c0.35-0.436,0.525-0.992,0.525-1.665c0-0.724-0.231-1.31-0.693-1.759c-0.462-0.448-1.066-0.823-1.815-1.122
			c-0.748-0.3-1.597-0.562-2.545-0.786c-0.948-0.225-1.908-0.474-2.881-0.749c-0.998-0.248-1.971-0.554-2.919-0.917
			c-0.949-0.361-1.797-0.828-2.545-1.403c-0.749-0.573-1.353-1.29-1.815-2.151c-0.462-0.86-0.692-1.902-0.692-3.125
			c0-1.372,0.292-2.563,0.878-3.574c0.586-1.01,1.353-1.852,2.302-2.525c0.948-0.674,2.021-1.173,3.218-1.497
			c1.197-0.324,2.395-0.487,3.592-0.487c1.397,0,2.737,0.157,4.022,0.468c1.285,0.313,2.427,0.817,3.424,1.517
			c0.998,0.698,1.789,1.59,2.377,2.675c0.586,1.085,0.879,2.401,0.879,3.948h-5.689c-0.05-0.798-0.218-1.459-0.504-1.983
			c-0.288-0.524-0.669-0.936-1.141-1.235c-0.475-0.3-1.017-0.51-1.629-0.636c-0.612-0.124-1.278-0.188-2.001-0.188
			c-0.475,0-0.949,0.051-1.423,0.15c-0.474,0.1-0.904,0.275-1.29,0.524c-0.387,0.25-0.705,0.562-0.955,0.936
			c-0.25,0.374-0.374,0.849-0.374,1.423c0,0.524,0.1,0.948,0.3,1.272c0.199,0.324,0.592,0.624,1.178,0.898
			c0.586,0.275,1.397,0.549,2.433,0.823c1.035,0.275,2.389,0.624,4.06,1.048c0.499,0.1,1.191,0.281,2.077,0.543
			c0.886,0.262,1.765,0.68,2.638,1.253c0.873,0.574,1.627,1.341,2.265,2.301c0.636,0.961,0.954,2.189,0.954,3.686
			c0,1.223-0.238,2.357-0.711,3.406c-0.474,1.048-1.178,1.951-2.113,2.713c-0.936,0.761-2.096,1.353-3.48,1.777
			c-1.385,0.424-2.988,0.636-4.809,0.636c-1.472,0-2.9-0.182-4.284-0.542c-1.385-0.362-2.608-0.929-3.668-1.703
			c-1.061-0.772-1.903-1.759-2.525-2.956c-0.625-1.197-0.923-2.619-0.899-4.266h5.689
			C353.488,305.172,353.65,305.933,353.974,306.557z"/>
		<path fill="#FFFFFF" d="M378.896,308.502c0.799,0.775,1.947,1.161,3.444,1.161c1.072,0,1.995-0.268,2.769-0.805
			c0.772-0.536,1.247-1.104,1.422-1.702h4.678c-0.748,2.319-1.895,3.978-3.442,4.976c-1.547,0.999-3.418,1.497-5.613,1.497
			c-1.521,0-2.894-0.244-4.116-0.73c-1.223-0.486-2.258-1.179-3.106-2.077c-0.848-0.898-1.503-1.97-1.965-3.218
			c-0.462-1.247-0.692-2.619-0.692-4.116c0-1.447,0.236-2.793,0.711-4.042c0.473-1.247,1.146-2.325,2.02-3.237
			c0.873-0.91,1.915-1.627,3.126-2.151c1.21-0.525,2.55-0.787,4.022-0.787c1.647,0,3.081,0.319,4.304,0.955
			c1.222,0.636,2.227,1.491,3.012,2.563c0.786,1.073,1.352,2.296,1.702,3.668c0.35,1.372,0.474,2.807,0.375,4.302h-13.959
			C377.662,306.483,378.098,307.73,378.896,308.502z M384.903,298.325c-0.636-0.698-1.603-1.049-2.9-1.049
			c-0.848,0-1.553,0.145-2.115,0.431c-0.56,0.286-1.01,0.642-1.347,1.066c-0.336,0.425-0.574,0.873-0.71,1.347
			c-0.138,0.474-0.219,0.898-0.244,1.273h8.644C385.981,300.046,385.539,299.023,384.903,298.325z"/>
		<path fill="#FFFFFF" d="M399.74,293.797v3.592h0.076c0.249-0.599,0.585-1.154,1.01-1.665c0.424-0.512,0.91-0.948,1.459-1.311
			c0.548-0.361,1.135-0.642,1.759-0.842c0.624-0.199,1.272-0.3,1.945-0.3c0.35,0,0.736,0.063,1.161,0.188v4.94
			c-0.25-0.05-0.549-0.094-0.899-0.13c-0.35-0.038-0.686-0.057-1.01-0.057c-0.973,0-1.797,0.163-2.47,0.487
			c-0.674,0.324-1.216,0.767-1.627,1.328c-0.412,0.562-0.705,1.217-0.88,1.965c-0.174,0.749-0.262,1.559-0.262,2.433v8.719h-5.314
			v-19.346H399.74z"/>
		<path fill="#FFFFFF" d="M414.033,313.143l-6.623-19.346h5.575l4.078,13.21h0.076l4.078-13.21h5.277l-6.549,19.346H414.033z"/>
		<path fill="#FFFFFF" d="M434.391,308.502c0.799,0.775,1.947,1.161,3.444,1.161c1.072,0,1.995-0.268,2.769-0.805
			c0.772-0.536,1.247-1.104,1.422-1.702h4.678c-0.748,2.319-1.895,3.978-3.442,4.976c-1.547,0.999-3.418,1.497-5.613,1.497
			c-1.521,0-2.894-0.244-4.116-0.73c-1.223-0.486-2.258-1.179-3.106-2.077c-0.848-0.898-1.503-1.97-1.965-3.218
			c-0.462-1.247-0.692-2.619-0.692-4.116c0-1.447,0.236-2.793,0.711-4.042c0.473-1.247,1.146-2.325,2.02-3.237
			c0.873-0.91,1.915-1.627,3.126-2.151c1.21-0.525,2.55-0.787,4.022-0.787c1.647,0,3.081,0.319,4.304,0.955
			c1.222,0.636,2.227,1.491,3.012,2.563c0.786,1.073,1.352,2.296,1.702,3.668s0.474,2.807,0.375,4.302h-13.959
			C433.157,306.483,433.593,307.73,434.391,308.502z M440.398,298.325c-0.636-0.698-1.603-1.049-2.9-1.049
			c-0.848,0-1.553,0.145-2.115,0.431c-0.56,0.286-1.01,0.642-1.347,1.066c-0.336,0.425-0.574,0.873-0.71,1.347
			c-0.138,0.474-0.219,0.898-0.244,1.273h8.644C441.476,300.046,441.033,299.023,440.398,298.325z"/>
		<path fill="#FFFFFF" d="M455.234,293.797v3.592h0.076c0.249-0.599,0.585-1.154,1.01-1.665c0.424-0.512,0.91-0.948,1.459-1.311
			c0.548-0.361,1.135-0.642,1.759-0.842c0.624-0.199,1.272-0.3,1.945-0.3c0.35,0,0.736,0.063,1.161,0.188v4.94
			c-0.25-0.05-0.549-0.094-0.899-0.13c-0.35-0.038-0.686-0.057-1.01-0.057c-0.973,0-1.797,0.163-2.47,0.487
			c-0.674,0.324-1.216,0.767-1.627,1.328c-0.412,0.562-0.705,1.217-0.88,1.965c-0.174,0.749-0.262,1.559-0.262,2.433v8.719h-5.314
			v-19.346H455.234z"/>
		<path fill="#FFFFFF" d="M481.579,286.425v10.253h10.815v-10.253h5.875v26.719h-5.875v-11.526h-10.815v11.526h-5.875v-26.719
			H481.579z"/>
		<path fill="#FFFFFF" d="M502.983,299.279c0.474-1.26,1.147-2.333,2.021-3.218s1.921-1.571,3.143-2.059
			c1.223-0.486,2.595-0.73,4.117-0.73c1.521,0,2.899,0.244,4.134,0.73c1.235,0.487,2.289,1.173,3.162,2.059s1.547,1.959,2.021,3.218
			c0.474,1.26,0.711,2.663,0.711,4.21s-0.238,2.944-0.711,4.192c-0.474,1.247-1.147,2.313-2.021,3.199s-1.927,1.567-3.162,2.039
			c-1.235,0.474-2.613,0.711-4.134,0.711c-1.523,0-2.894-0.238-4.117-0.711c-1.222-0.473-2.269-1.154-3.143-2.039
			s-1.547-1.951-2.021-3.199c-0.474-1.247-0.711-2.645-0.711-4.192S502.509,300.538,502.983,299.279z M507.811,305.753
			c0.15,0.736,0.406,1.397,0.767,1.983c0.361,0.586,0.842,1.054,1.44,1.403c0.599,0.35,1.347,0.524,2.246,0.524
			c0.898,0,1.652-0.174,2.263-0.524s1.098-0.817,1.459-1.403c0.362-0.586,0.618-1.247,0.767-1.983s0.224-1.491,0.224-2.265
			s-0.074-1.535-0.224-2.283c-0.15-0.748-0.406-1.409-0.767-1.983c-0.362-0.574-0.848-1.042-1.459-1.403s-1.366-0.543-2.263-0.543
			c-0.899,0-1.647,0.182-2.246,0.543c-0.598,0.362-1.079,0.83-1.44,1.403c-0.362,0.574-0.618,1.235-0.767,1.983
			c-0.15,0.748-0.224,1.509-0.224,2.283S507.661,305.017,507.811,305.753z"/>
		<path fill="#FFFFFF" d="M530.207,308.334c0.236,0.412,0.542,0.749,0.917,1.011c0.374,0.262,0.804,0.456,1.29,0.58
			c0.487,0.125,0.992,0.186,1.517,0.186c0.374,0,0.766-0.043,1.178-0.13s0.786-0.224,1.123-0.412
			c0.336-0.188,0.618-0.436,0.842-0.748c0.224-0.312,0.337-0.705,0.337-1.179c0-0.798-0.531-1.397-1.591-1.797
			c-1.061-0.398-2.539-0.798-4.434-1.197c-0.773-0.174-1.529-0.38-2.265-0.618c-0.736-0.236-1.391-0.548-1.965-0.936
			c-0.574-0.386-1.035-0.872-1.384-1.459c-0.35-0.586-0.524-1.303-0.524-2.151c0-1.247,0.242-2.269,0.73-3.068
			c0.486-0.798,1.128-1.428,1.927-1.889c0.798-0.462,1.696-0.787,2.693-0.973c0.998-0.188,2.021-0.281,3.07-0.281
			c1.048,0,2.063,0.101,3.049,0.3c0.985,0.2,1.865,0.537,2.638,1.011c0.774,0.474,1.416,1.104,1.927,1.889s0.817,1.777,0.917,2.975
			h-5.053c-0.074-1.022-0.462-1.715-1.16-2.077c-0.698-0.361-1.521-0.542-2.469-0.542c-0.3,0-0.625,0.018-0.973,0.056
			c-0.35,0.038-0.668,0.118-0.954,0.244c-0.287,0.124-0.531,0.306-0.73,0.542c-0.201,0.238-0.3,0.555-0.3,0.954
			c0,0.475,0.174,0.861,0.524,1.161c0.348,0.298,0.804,0.542,1.366,0.73c0.562,0.186,1.203,0.356,1.927,0.504
			c0.724,0.15,1.459,0.313,2.208,0.487c0.772,0.174,1.528,0.387,2.263,0.636c0.736,0.25,1.391,0.58,1.965,0.992
			c0.574,0.412,1.035,0.923,1.385,1.535c0.348,0.612,0.524,1.366,0.524,2.263c0,1.273-0.256,2.339-0.767,3.2
			c-0.512,0.86-1.179,1.553-2.003,2.077c-0.822,0.524-1.765,0.892-2.825,1.104c-1.061,0.212-2.139,0.318-3.237,0.318
			c-1.123,0-2.221-0.112-3.294-0.336c-1.072-0.225-2.027-0.599-2.863-1.123s-1.521-1.216-2.057-2.077
			c-0.537-0.86-0.83-1.939-0.88-3.237h5.052C529.852,307.43,529.97,307.922,530.207,308.334z"/>
		<path fill="#FFFFFF" d="M556.457,293.797v3.555h-3.892v9.579c0,0.899,0.15,1.497,0.449,1.797c0.3,0.3,0.898,0.448,1.797,0.448
			c0.298,0,0.586-0.012,0.86-0.037c0.274-0.024,0.536-0.062,0.786-0.112v4.116c-0.448,0.074-0.948,0.124-1.496,0.15
			c-0.549,0.024-1.085,0.037-1.609,0.037c-0.823,0-1.604-0.056-2.339-0.168c-0.737-0.112-1.385-0.33-1.947-0.654
			c-0.562-0.324-1.004-0.787-1.328-1.385c-0.325-0.599-0.487-1.385-0.487-2.357v-11.414h-3.218v-3.555h3.218v-5.801h5.314v5.801
			H556.457z"/>
		<path fill="#FFFFFF" d="M559.151,290.803v-4.378h5.314v4.378H559.151z M564.465,293.797v19.346h-5.314v-19.346H564.465z"/>
		<path fill="#FFFFFF" d="M573.708,293.797v2.693h0.112c0.674-1.122,1.547-1.939,2.62-2.451c1.072-0.51,2.169-0.767,3.293-0.767
			c1.422,0,2.587,0.194,3.499,0.581c0.911,0.386,1.629,0.923,2.152,1.609c0.524,0.686,0.892,1.521,1.104,2.507
			c0.212,0.985,0.318,2.077,0.318,3.274v11.9h-5.313v-10.927c0-1.597-0.25-2.788-0.749-3.574c-0.498-0.786-1.384-1.179-2.657-1.179
			c-1.447,0-2.495,0.43-3.143,1.291c-0.649,0.86-0.973,2.277-0.973,4.248v10.141h-5.314v-19.346H573.708z"/>
		<path fill="#FFFFFF" d="M609.127,314.565c-0.213,0.998-0.669,1.927-1.367,2.788c-0.698,0.86-1.709,1.59-3.031,2.189
			c-1.323,0.598-3.094,0.898-5.314,0.898c-0.949,0-1.915-0.118-2.9-0.356c-0.985-0.238-1.884-0.604-2.695-1.104
			c-0.811-0.499-1.485-1.141-2.021-1.927c-0.536-0.786-0.842-1.727-0.916-2.825h5.276c0.25,0.998,0.736,1.69,1.459,2.077
			c0.724,0.386,1.559,0.58,2.507,0.58c1.497,0,2.589-0.449,3.274-1.347s1.017-2.034,0.993-3.406v-2.545h-0.076
			c-0.574,1.023-1.391,1.779-2.451,2.265c-1.061,0.486-2.177,0.73-3.35,0.73c-1.447,0-2.693-0.256-3.742-0.767
			c-1.048-0.51-1.908-1.21-2.581-2.095c-0.674-0.886-1.167-1.921-1.479-3.106c-0.312-1.184-0.468-2.438-0.468-3.76
			c0-1.247,0.181-2.451,0.543-3.612c0.361-1.16,0.892-2.183,1.59-3.068c0.699-0.884,1.565-1.59,2.601-2.113
			c1.035-0.525,2.227-0.787,3.574-0.787c1.273,0,2.389,0.238,3.35,0.711c0.96,0.474,1.764,1.273,2.413,2.395h0.076v-2.581h5.052
			v18.111C609.445,312.682,609.338,313.567,609.127,314.565z M601.849,308.128c0.573-0.298,1.048-0.698,1.422-1.197
			c0.374-0.498,0.655-1.066,0.842-1.703c0.188-0.636,0.281-1.302,0.281-2.001c0-0.798-0.076-1.553-0.225-2.265
			c-0.15-0.71-0.4-1.34-0.748-1.889c-0.35-0.548-0.811-0.985-1.385-1.31s-1.297-0.487-2.171-0.487c-0.748,0-1.391,0.15-1.927,0.449
			c-0.536,0.3-0.985,0.705-1.347,1.217c-0.362,0.512-0.624,1.098-0.786,1.758c-0.162,0.661-0.242,1.355-0.242,2.077
			c0,0.699,0.068,1.391,0.206,2.077c0.136,0.687,0.374,1.305,0.71,1.853c0.337,0.549,0.78,0.998,1.329,1.347
			c0.548,0.35,1.235,0.524,2.057,0.524C600.613,308.578,601.273,308.428,601.849,308.128z"/>
	</g>
</g>
</svg>
