<?xml version="1.0" encoding="utf-8"?>
<!-- Generator: Adobe Illustrator 17.0.2, SVG Export Plug-In . SVG Version: 6.00 Build 0)  -->
<!DOCTYPE svg PUBLIC "-//W3C//DTD SVG 1.1//EN" "http://www.w3.org/Graphics/SVG/1.1/DTD/svg11.dtd">
<svg version="1.1" id="Layer_1" xmlns="http://www.w3.org/2000/svg" xmlns:xlink="http://www.w3.org/1999/xlink" x="0px" y="0px"
	 width="460px" height="411px" viewBox="0 0 460 411" enable-background="new 0 0 460 411" xml:space="preserve">
<g>
	<rect fill="#F26822" width="46" height="46"/>
	<rect x="46" fill="#F26822" width="46" height="46"/>
	<rect x="92" fill="#F47B20" width="46" height="46"/>
	<rect x="138" fill="#F47920" width="45" height="46"/>
	<rect x="183" fill="#F37321" width="48" height="46"/>
	<rect x="231" fill="#E05926" width="45" height="46"/>
	<rect x="276" fill="#F26322" width="46" height="46"/>
	<rect x="322" fill="#F36F21" width="46" height="46"/>
	<rect x="368" fill="#EC6524" width="46" height="46"/>
	<rect x="414" fill="#F47B20" width="46" height="46"/>
	<rect y="46" fill="#E15425" width="46" height="45"/>
	<rect x="46" y="46" fill="#F47521" width="46" height="45"/>
	<rect x="92" y="46" fill="#F26922" width="46" height="45"/>
	<rect x="138" y="46" fill="#F36F21" width="45" height="45"/>
	<rect x="183" y="46" fill="#EC6524" width="48" height="45"/>
	<rect x="231" y="46" fill="#F47920" width="45" height="45"/>
	<rect x="276" y="46" fill="#F47521" width="46" height="45"/>
	<rect x="322" y="46" fill="#F47B20" width="46" height="45"/>
	<rect x="368" y="46" fill="#EB5D24" width="46" height="45"/>
	<rect x="414" y="46" fill="#EE6323" width="46" height="45"/>
	<rect y="91" fill="#F26922" width="46" height="46"/>
	<rect x="46" y="91" fill="#F26822" width="46" height="46"/>
	<rect x="92" y="91" fill="#F47B20" width="46" height="46"/>
	<rect x="138" y="91" fill="#F47920" width="45" height="46"/>
	<rect x="183" y="91" fill="#F37321" width="48" height="46"/>
	<rect x="231" y="91" fill="#E05926" width="45" height="46"/>
	<rect x="276" y="91" fill="#F26322" width="46" height="46"/>
	<rect x="322" y="91" fill="#F36F21" width="46" height="46"/>
	<rect x="368" y="91" fill="#F26322" width="46" height="46"/>
	<rect x="414" y="91" fill="#EE6323" width="46" height="46"/>
	<rect y="137" fill="#EC6524" width="46" height="46"/>
	<rect x="46" y="137" fill="#EC6524" width="46" height="46"/>
	<rect x="92" y="137" fill="#F26922" width="46" height="46"/>
	<rect x="138" y="137" fill="#EC6524" width="45" height="46"/>
	<rect x="183" y="137" fill="#F36F25" width="48" height="46"/>
	<rect x="231" y="137" fill="#F15B22" width="45" height="46"/>
	<rect x="276" y="137" fill="#EC6524" width="46" height="46"/>
	<rect x="322" y="137" fill="#F47B22" width="46" height="46"/>
	<rect x="368" y="137" fill="#F15B22" width="46" height="46"/>
	<rect x="414" y="137" fill="#F47521" width="46" height="46"/>
	<rect y="182" fill="#F37327" width="46" height="47"/>
	<rect x="46" y="182" fill="#F37327" width="46" height="47"/>
	<rect x="92" y="182" fill="#F15B22" width="46" height="47"/>
	<rect x="138" y="182" fill="#F26822" width="45" height="47"/>
	<rect x="183" y="182" fill="#F15B22" width="48" height="47"/>
	<rect x="231" y="182" fill="#F36F25" width="45" height="47"/>
	<rect x="276" y="182" fill="#F15B22" width="46" height="47"/>
	<rect x="322" y="182" fill="#ED6123" width="46" height="47"/>
	<rect x="368" y="182" fill="#F26822" width="46" height="47"/>
	<rect x="414" y="182" fill="#F47B20" width="46" height="47"/>
	<rect y="229" fill="#F26822" width="46" height="46"/>
	<rect x="46" y="229" fill="#E05926" width="46" height="46"/>
	<rect x="92" y="229" fill="#F26822" width="46" height="46"/>
	<rect x="138" y="229" fill="#E85524" width="45" height="46"/>
	<rect x="183" y="229" fill="#F4742C" width="48" height="46"/>
	<rect x="231" y="229" fill="#F47B22" width="45" height="46"/>
	<rect x="276" y="229" fill="#F36F25" width="46" height="46"/>
	<rect x="322" y="229" fill="#F26322" width="46" height="46"/>
	<rect x="368" y="229" fill="#EE6323" width="46" height="46"/>
	<rect x="414" y="229" fill="#F26822" width="46" height="46"/>
	<rect y="275" fill="#F47B20" width="46" height="46"/>
	<rect x="46" y="275" fill="#F47521" width="46" height="46"/>
	<rect x="92" y="275" fill="#EC6524" width="46" height="46"/>
	<rect x="138" y="275" fill="#EC6524" width="45" height="46"/>
	<rect x="183" y="275" fill="#E05926" width="48" height="46"/>
	<rect x="231" y="275" fill="#F26822" width="45" height="46"/>
	<rect x="276" y="275" fill="#F47B20" width="46" height="46"/>
	<rect x="322" y="275" fill="#F4792E" width="46" height="46"/>
	<rect x="368" y="275" fill="#F26322" width="46" height="46"/>
	<rect x="414" y="275" fill="#F26822" width="46" height="46"/>
	<rect y="320" fill="#F2692B" width="46" height="45"/>
	<rect x="46" y="320" fill="#F47521" width="46" height="45"/>
	<rect x="92" y="320" fill="#ED6123" width="46" height="45"/>
	<rect x="138" y="320" fill="#F15B22" width="45" height="45"/>
	<rect x="183" y="320" fill="#F26322" width="48" height="45"/>
	<rect x="231" y="320" fill="#F2692B" width="45" height="45"/>
	<rect x="276" y="320" fill="#EC6524" width="46" height="45"/>
	<rect x="322" y="320" fill="#F26822" width="46" height="45"/>
	<rect x="368" y="320" fill="#F37221" width="46" height="45"/>
	<rect x="414" y="320" fill="#F47B20" width="46" height="45"/>
	<rect y="365" fill="#EA5924" width="46" height="46"/>
	<rect x="46" y="365" fill="#F26322" width="46" height="46"/>
	<rect x="92" y="365" fill="#F15B22" width="46" height="46"/>
	<rect x="138" y="365" fill="#F47521" width="45" height="46"/>
	<rect x="183" y="365" fill="#EC6524" width="48" height="46"/>
	<rect x="231" y="365" fill="#F26322" width="45" height="46"/>
	<rect x="276" y="365" fill="#F26822" width="46" height="46"/>
	<rect x="322" y="365" fill="#EC6524" width="46" height="46"/>
	<rect x="368" y="365" fill="#F47B20" width="46" height="46"/>
	<rect x="414" y="365" fill="#E05926" width="46" height="46"/>
</g>
</svg>
